# xmcd
#
# Track frame offsets:
# 150
# 13672
# 30744
# 51595
# 66115
# 81320
# 96112
# 114112
# 131882
# 147185
#
# Disc length: 2211 seconds
#
#
# Revision: 3
# Processed by: cddbd v1.5.1PL0 Copyright (c) Steve Scherf et al.
# Submitted via: FreeRIP 2.90 
#
DISCID=8908a10a
DTITLE=Gian e Giovani - Os Melhores Sucessos Ao Vivo (Disco 1)
DYEAR=1999
DGENRE=Country
TTITLE0=Caih No Laco
TTITLE1=Mil Coracoes
TTITLE2=Eu Busco Uma Estrela (Yo Busco Una Estrella)
TTITLE3=Viola Caipira
TTITLE4=Pra Te Ver Rebolar
TTITLE5=Olha Amor
TTITLE6=Nossa Senhora Aparecida
TTITLE7=Alo
TTITLE8=Me Dah Um Beijo
TTITLE9=Quem Serah
EXTD=YEAR: 1999
EXTT0=
EXTT1=
EXTT2=
EXTT3=
EXTT4=
EXTT5=
EXTT6=
EXTT7=
EXTT8=
EXTT9=
PLAYORDER=
